<svg id="Layer_1" data-name="Layer 1" xmlns="http://www.w3.org/2000/svg" xmlns:xlink="http://www.w3.org/1999/xlink" viewBox="0 0 270 280"><defs><style>.cls-1,.cls-3,.cls-5,.cls-7{fill:none;}.cls-2{clip-path:url(#clip-path);}.cls-3{stroke:#eaa935;}.cls-3,.cls-5,.cls-7{stroke-miterlimit:10;}.cls-4{clip-path:url(#clip-path-2);}.cls-5{stroke:#bc6564;}.cls-6{clip-path:url(#clip-path-3);}.cls-7{stroke:#64ba66;}</style><clipPath id="clip-path"><circle class="cls-1" cx="136" cy="138" r="128.99"/></clipPath><clipPath id="clip-path-2"><circle class="cls-1" cx="-186.93" cy="139.71" r="128.99"/></clipPath><clipPath id="clip-path-3"><circle class="cls-1" cx="487.25" cy="138.77" r="128.99"/></clipPath></defs><title>엽서라인</title><g class="cls-2"><line class="cls-3" x1="155.52" y1="-60.11" x2="-94.55" y2="186.71"/><line class="cls-3" x1="158.88" y1="-56.75" x2="-91.19" y2="190.07"/><line class="cls-3" x1="162.25" y1="-53.38" x2="-87.83" y2="193.44"/><line class="cls-3" x1="165.61" y1="-50.02" x2="-84.46" y2="196.8"/><line class="cls-3" x1="168.98" y1="-46.65" x2="-81.1" y2="200.17"/><line class="cls-3" x1="172.34" y1="-43.29" x2="-77.73" y2="203.53"/><line class="cls-3" x1="175.7" y1="-39.93" x2="-74.37" y2="206.9"/><line class="cls-3" x1="179.07" y1="-36.56" x2="-71.01" y2="210.26"/><line class="cls-3" x1="182.43" y1="-33.2" x2="-67.64" y2="213.62"/><line class="cls-3" x1="185.8" y1="-29.83" x2="-64.28" y2="216.99"/><line class="cls-3" x1="189.16" y1="-26.47" x2="-60.91" y2="220.35"/><line class="cls-3" x1="192.52" y1="-23.1" x2="-57.55" y2="223.72"/><line class="cls-3" x1="195.89" y1="-19.74" x2="-54.19" y2="227.08"/><line class="cls-3" x1="199.25" y1="-16.38" x2="-50.82" y2="230.44"/><line class="cls-3" x1="202.62" y1="-13.01" x2="-47.46" y2="233.81"/><line class="cls-3" x1="205.98" y1="-9.65" x2="-44.09" y2="237.17"/><line class="cls-3" x1="209.34" y1="-6.28" x2="-40.73" y2="240.54"/><line class="cls-3" x1="212.71" y1="-2.92" x2="-37.37" y2="243.9"/><line class="cls-3" x1="216.07" y1="0.44" x2="-34" y2="247.27"/><line class="cls-3" x1="219.44" y1="3.81" x2="-30.64" y2="250.63"/><line class="cls-3" x1="222.8" y1="7.17" x2="-27.27" y2="253.99"/><line class="cls-3" x1="226.16" y1="10.54" x2="-23.91" y2="257.36"/><line class="cls-3" x1="229.53" y1="13.9" x2="-20.55" y2="260.72"/><line class="cls-3" x1="232.89" y1="17.27" x2="-17.18" y2="264.09"/><line class="cls-3" x1="236.26" y1="20.63" x2="-13.82" y2="267.45"/><line class="cls-3" x1="239.62" y1="23.99" x2="-10.45" y2="270.82"/><line class="cls-3" x1="242.98" y1="27.36" x2="-7.09" y2="274.18"/><line class="cls-3" x1="246.35" y1="30.72" x2="-3.73" y2="277.54"/><line class="cls-3" x1="249.71" y1="34.09" x2="-0.36" y2="280.91"/><line class="cls-3" x1="253.08" y1="37.45" x2="3" y2="284.27"/><line class="cls-3" x1="256.44" y1="40.82" x2="6.37" y2="287.64"/><line class="cls-3" x1="259.8" y1="44.18" x2="9.73" y2="291"/><line class="cls-3" x1="263.17" y1="47.54" x2="13.09" y2="294.37"/><line class="cls-3" x1="266.53" y1="50.91" x2="16.46" y2="297.73"/><line class="cls-3" x1="269.9" y1="54.27" x2="19.82" y2="301.09"/><line class="cls-3" x1="273.26" y1="57.64" x2="23.19" y2="304.46"/><line class="cls-3" x1="276.62" y1="61" x2="26.55" y2="307.82"/><line class="cls-3" x1="279.99" y1="64.37" x2="29.91" y2="311.19"/><line class="cls-3" x1="283.35" y1="67.73" x2="33.28" y2="314.55"/><line class="cls-3" x1="286.72" y1="71.09" x2="36.64" y2="317.92"/><line class="cls-3" x1="290.08" y1="74.46" x2="40.01" y2="321.28"/><line class="cls-3" x1="293.44" y1="77.82" x2="43.37" y2="324.64"/><line class="cls-3" x1="296.81" y1="81.19" x2="46.73" y2="328.01"/><line class="cls-3" x1="300.17" y1="84.55" x2="50.1" y2="331.37"/><line class="cls-3" x1="303.54" y1="87.92" x2="53.46" y2="334.74"/><line class="cls-3" x1="306.9" y1="91.28" x2="56.83" y2="338.1"/><line class="cls-3" x1="310.26" y1="94.64" x2="60.19" y2="341.46"/><line class="cls-3" x1="313.63" y1="98.01" x2="63.56" y2="344.83"/><line class="cls-3" x1="316.99" y1="101.37" x2="66.92" y2="348.19"/><line class="cls-3" x1="320.36" y1="104.74" x2="70.28" y2="351.56"/><line class="cls-3" x1="323.72" y1="108.1" x2="73.65" y2="354.92"/><line class="cls-3" x1="327.08" y1="111.47" x2="77.01" y2="358.29"/><line class="cls-3" x1="330.45" y1="114.83" x2="80.38" y2="361.65"/><line class="cls-3" x1="333.81" y1="118.19" x2="83.74" y2="365.02"/><line class="cls-3" x1="337.18" y1="121.56" x2="87.1" y2="368.38"/><line class="cls-3" x1="340.54" y1="124.92" x2="90.47" y2="371.74"/><line class="cls-3" x1="343.9" y1="128.29" x2="93.83" y2="375.11"/><line class="cls-3" x1="347.27" y1="131.65" x2="97.19" y2="378.47"/></g><g class="cls-4"><line class="cls-5" x1="0.79" y1="109.82" x2="-249.28" y2="356.64"/><line class="cls-5" x1="4.16" y1="113.18" x2="-245.92" y2="360"/><line class="cls-5" x1="7.52" y1="116.54" x2="-242.55" y2="363.37"/><line class="cls-5" x1="10.88" y1="119.91" x2="-239.19" y2="366.73"/><line class="cls-5" x1="14.25" y1="123.27" x2="-235.82" y2="370.09"/><line class="cls-5" x1="17.61" y1="126.64" x2="-232.46" y2="373.46"/><line class="cls-5" x1="20.98" y1="130" x2="-229.1" y2="376.82"/><line class="cls-5" x1="24.34" y1="133.37" x2="-225.73" y2="380.19"/></g><g class="cls-6"><line class="cls-7" x1="506.77" y1="-59.34" x2="256.7" y2="187.48"/><line class="cls-7" x1="510.13" y1="-55.98" x2="260.06" y2="190.84"/><line class="cls-7" x1="513.5" y1="-52.62" x2="263.42" y2="194.21"/><line class="cls-7" x1="516.86" y1="-49.25" x2="266.79" y2="197.57"/><line class="cls-7" x1="520.23" y1="-45.89" x2="270.15" y2="200.93"/></g></svg>