<svg id="Layer_1" data-name="Layer 1" xmlns="http://www.w3.org/2000/svg" xmlns:xlink="http://www.w3.org/1999/xlink" viewBox="0 0 270 280"><defs><style>.cls-1,.cls-3{fill:none;}.cls-2{clip-path:url(#clip-path);}.cls-3{stroke:#64ba66;stroke-miterlimit:10;}</style><clipPath id="clip-path"><circle class="cls-1" cx="135.25" cy="138.77" r="128.99"/></clipPath></defs><title>엽서라인</title><g class="cls-2"><line class="cls-3" x1="154.77" y1="-59.34" x2="-95.3" y2="187.48"/><line class="cls-3" x1="158.13" y1="-55.98" x2="-91.94" y2="190.84"/><line class="cls-3" x1="161.5" y1="-52.62" x2="-88.58" y2="194.21"/><line class="cls-3" x1="164.86" y1="-49.25" x2="-85.21" y2="197.57"/><line class="cls-3" x1="168.23" y1="-45.89" x2="-81.85" y2="200.93"/><line class="cls-3" x1="171.59" y1="-42.52" x2="-78.48" y2="204.3"/><line class="cls-3" x1="174.95" y1="-39.16" x2="-75.12" y2="207.66"/><line class="cls-3" x1="178.32" y1="-35.79" x2="-71.76" y2="211.03"/><line class="cls-3" x1="181.68" y1="-32.43" x2="-68.39" y2="214.39"/><line class="cls-3" x1="185.05" y1="-29.07" x2="-65.03" y2="217.76"/><line class="cls-3" x1="188.41" y1="-25.7" x2="-61.66" y2="221.12"/><line class="cls-3" x1="191.77" y1="-22.34" x2="-58.3" y2="224.48"/><line class="cls-3" x1="195.14" y1="-18.97" x2="-54.93" y2="227.85"/><line class="cls-3" x1="198.5" y1="-15.61" x2="-51.57" y2="231.21"/><line class="cls-3" x1="201.87" y1="-12.24" x2="-48.21" y2="234.58"/><line class="cls-3" x1="205.23" y1="-8.88" x2="-44.84" y2="237.94"/><line class="cls-3" x1="208.59" y1="-5.52" x2="-41.48" y2="241.3"/><line class="cls-3" x1="211.96" y1="-2.15" x2="-38.11" y2="244.67"/><line class="cls-3" x1="215.32" y1="1.21" x2="-34.75" y2="248.03"/><line class="cls-3" x1="218.69" y1="4.58" x2="-31.39" y2="251.4"/><line class="cls-3" x1="222.05" y1="7.94" x2="-28.02" y2="254.76"/><line class="cls-3" x1="225.41" y1="11.3" x2="-24.66" y2="258.13"/><line class="cls-3" x1="228.78" y1="14.67" x2="-21.29" y2="261.49"/><line class="cls-3" x1="232.14" y1="18.03" x2="-17.93" y2="264.86"/><line class="cls-3" x1="235.51" y1="21.4" x2="-14.57" y2="268.22"/><line class="cls-3" x1="238.87" y1="24.76" x2="-11.2" y2="271.58"/><line class="cls-3" x1="242.23" y1="28.13" x2="-7.84" y2="274.95"/><line class="cls-3" x1="245.6" y1="31.49" x2="-4.47" y2="278.31"/><line class="cls-3" x1="248.96" y1="34.86" x2="-1.11" y2="281.68"/><line class="cls-3" x1="252.33" y1="38.22" x2="2.25" y2="285.04"/><line class="cls-3" x1="255.69" y1="41.58" x2="5.62" y2="288.4"/><line class="cls-3" x1="259.05" y1="44.95" x2="8.98" y2="291.77"/><line class="cls-3" x1="262.42" y1="48.31" x2="12.35" y2="295.13"/><line class="cls-3" x1="265.78" y1="51.68" x2="15.71" y2="298.5"/><line class="cls-3" x1="269.15" y1="55.04" x2="19.07" y2="301.86"/><line class="cls-3" x1="272.51" y1="58.4" x2="22.44" y2="305.23"/><line class="cls-3" x1="275.87" y1="61.77" x2="25.8" y2="308.59"/><line class="cls-3" x1="279.24" y1="65.13" x2="29.17" y2="311.96"/><line class="cls-3" x1="282.6" y1="68.5" x2="32.53" y2="315.32"/><line class="cls-3" x1="285.97" y1="71.86" x2="35.89" y2="318.68"/><line class="cls-3" x1="289.33" y1="75.23" x2="39.26" y2="322.05"/><line class="cls-3" x1="292.69" y1="78.59" x2="42.62" y2="325.41"/><line class="cls-3" x1="296.06" y1="81.96" x2="45.99" y2="328.78"/><line class="cls-3" x1="299.42" y1="85.32" x2="49.35" y2="332.14"/><line class="cls-3" x1="302.79" y1="88.68" x2="52.71" y2="335.5"/><line class="cls-3" x1="306.15" y1="92.05" x2="56.08" y2="338.87"/><line class="cls-3" x1="309.51" y1="95.41" x2="59.44" y2="342.23"/><line class="cls-3" x1="312.88" y1="98.78" x2="62.81" y2="345.6"/><line class="cls-3" x1="316.24" y1="102.14" x2="66.17" y2="348.96"/><line class="cls-3" x1="319.61" y1="105.5" x2="69.53" y2="352.33"/><line class="cls-3" x1="322.97" y1="108.87" x2="72.9" y2="355.69"/><line class="cls-3" x1="326.33" y1="112.23" x2="76.26" y2="359.05"/><line class="cls-3" x1="329.7" y1="115.6" x2="79.63" y2="362.42"/><line class="cls-3" x1="333.06" y1="118.96" x2="82.99" y2="365.78"/><line class="cls-3" x1="336.43" y1="122.33" x2="86.35" y2="369.15"/><line class="cls-3" x1="339.79" y1="125.69" x2="89.72" y2="372.51"/><line class="cls-3" x1="343.15" y1="129.05" x2="93.08" y2="375.88"/><line class="cls-3" x1="346.52" y1="132.42" x2="96.45" y2="379.24"/></g></svg>