<svg id="Layer_1" data-name="Layer 1" xmlns="http://www.w3.org/2000/svg" xmlns:xlink="http://www.w3.org/1999/xlink" viewBox="0 0 270 280"><defs><style>.cls-1,.cls-3,.cls-5{fill:none;}.cls-2{clip-path:url(#clip-path);}.cls-3{stroke:#eaa935;}.cls-3,.cls-5{stroke-miterlimit:10;}.cls-4{clip-path:url(#clip-path-2);}.cls-5{stroke:#bc6564;}</style><clipPath id="clip-path"><circle class="cls-1" cx="458" cy="138" r="128.99"/></clipPath><clipPath id="clip-path-2"><circle class="cls-1" cx="135.07" cy="139.71" r="128.99"/></clipPath></defs><title>엽서라인</title><g class="cls-2"><line class="cls-3" x1="477.52" y1="-60.11" x2="227.45" y2="186.71"/><line class="cls-3" x1="480.88" y1="-56.75" x2="230.81" y2="190.07"/><line class="cls-3" x1="484.25" y1="-53.38" x2="234.17" y2="193.44"/><line class="cls-3" x1="487.61" y1="-50.02" x2="237.54" y2="196.8"/><line class="cls-3" x1="490.98" y1="-46.65" x2="240.9" y2="200.17"/><line class="cls-3" x1="494.34" y1="-43.29" x2="244.27" y2="203.53"/><line class="cls-3" x1="497.7" y1="-39.93" x2="247.63" y2="206.9"/><line class="cls-3" x1="501.07" y1="-36.56" x2="250.99" y2="210.26"/><line class="cls-3" x1="504.43" y1="-33.2" x2="254.36" y2="213.62"/><line class="cls-3" x1="507.8" y1="-29.83" x2="257.72" y2="216.99"/><line class="cls-3" x1="511.16" y1="-26.47" x2="261.09" y2="220.35"/><line class="cls-3" x1="514.52" y1="-23.1" x2="264.45" y2="223.72"/><line class="cls-3" x1="517.89" y1="-19.74" x2="267.81" y2="227.08"/></g><g class="cls-4"><line class="cls-5" x1="154.59" y1="-58.4" x2="-95.48" y2="188.42"/><line class="cls-5" x1="157.96" y1="-55.03" x2="-92.12" y2="191.79"/><line class="cls-5" x1="161.32" y1="-51.67" x2="-88.75" y2="195.15"/><line class="cls-5" x1="164.68" y1="-48.3" x2="-85.39" y2="198.52"/><line class="cls-5" x1="168.05" y1="-44.94" x2="-82.02" y2="201.88"/><line class="cls-5" x1="171.41" y1="-41.58" x2="-78.66" y2="205.25"/><line class="cls-5" x1="174.78" y1="-38.21" x2="-75.3" y2="208.61"/><line class="cls-5" x1="178.14" y1="-34.85" x2="-71.93" y2="211.97"/><line class="cls-5" x1="181.5" y1="-31.48" x2="-68.57" y2="215.34"/><line class="cls-5" x1="184.87" y1="-28.12" x2="-65.21" y2="218.7"/><line class="cls-5" x1="188.23" y1="-24.75" x2="-61.84" y2="222.07"/><line class="cls-5" x1="191.6" y1="-21.39" x2="-58.48" y2="225.43"/><line class="cls-5" x1="194.96" y1="-18.03" x2="-55.11" y2="228.8"/><line class="cls-5" x1="198.32" y1="-14.66" x2="-51.75" y2="232.16"/><line class="cls-5" x1="201.69" y1="-11.3" x2="-48.38" y2="235.52"/><line class="cls-5" x1="205.05" y1="-7.93" x2="-45.02" y2="238.89"/><line class="cls-5" x1="208.42" y1="-4.57" x2="-41.66" y2="242.25"/><line class="cls-5" x1="211.78" y1="-1.2" x2="-38.29" y2="245.62"/><line class="cls-5" x1="215.14" y1="2.16" x2="-34.93" y2="248.98"/><line class="cls-5" x1="218.51" y1="5.52" x2="-31.56" y2="252.35"/><line class="cls-5" x1="221.87" y1="8.89" x2="-28.2" y2="255.71"/><line class="cls-5" x1="225.24" y1="12.25" x2="-24.84" y2="259.07"/><line class="cls-5" x1="228.6" y1="15.62" x2="-21.47" y2="262.44"/><line class="cls-5" x1="231.96" y1="18.98" x2="-18.11" y2="265.8"/><line class="cls-5" x1="235.33" y1="22.35" x2="-14.74" y2="269.17"/><line class="cls-5" x1="238.69" y1="25.71" x2="-11.38" y2="272.53"/><line class="cls-5" x1="242.06" y1="29.07" x2="-8.02" y2="275.9"/><line class="cls-5" x1="245.42" y1="32.44" x2="-4.65" y2="279.26"/><line class="cls-5" x1="248.78" y1="35.8" x2="-1.29" y2="282.62"/><line class="cls-5" x1="252.15" y1="39.17" x2="2.08" y2="285.99"/><line class="cls-5" x1="255.51" y1="42.53" x2="5.44" y2="289.35"/><line class="cls-5" x1="258.88" y1="45.9" x2="8.8" y2="292.72"/><line class="cls-5" x1="262.24" y1="49.26" x2="12.17" y2="296.08"/><line class="cls-5" x1="265.6" y1="52.62" x2="15.53" y2="299.45"/><line class="cls-5" x1="268.97" y1="55.99" x2="18.9" y2="302.81"/><line class="cls-5" x1="272.33" y1="59.35" x2="22.26" y2="306.17"/><line class="cls-5" x1="275.7" y1="62.72" x2="25.62" y2="309.54"/><line class="cls-5" x1="279.06" y1="66.08" x2="28.99" y2="312.9"/><line class="cls-5" x1="282.42" y1="69.44" x2="32.35" y2="316.27"/><line class="cls-5" x1="285.79" y1="72.81" x2="35.72" y2="319.63"/><line class="cls-5" x1="289.15" y1="76.17" x2="39.08" y2="322.99"/><line class="cls-5" x1="292.52" y1="79.54" x2="42.44" y2="326.36"/><line class="cls-5" x1="295.88" y1="82.9" x2="45.81" y2="329.72"/><line class="cls-5" x1="299.24" y1="86.27" x2="49.17" y2="333.09"/><line class="cls-5" x1="302.61" y1="89.63" x2="52.54" y2="336.45"/><line class="cls-5" x1="305.97" y1="92.99" x2="55.9" y2="339.82"/><line class="cls-5" x1="309.34" y1="96.36" x2="59.26" y2="343.18"/><line class="cls-5" x1="312.7" y1="99.72" x2="62.63" y2="346.54"/><line class="cls-5" x1="316.06" y1="103.09" x2="65.99" y2="349.91"/><line class="cls-5" x1="319.43" y1="106.45" x2="69.36" y2="353.27"/><line class="cls-5" x1="322.79" y1="109.82" x2="72.72" y2="356.64"/><line class="cls-5" x1="326.16" y1="113.18" x2="76.08" y2="360"/><line class="cls-5" x1="329.52" y1="116.54" x2="79.45" y2="363.37"/><line class="cls-5" x1="332.88" y1="119.91" x2="82.81" y2="366.73"/><line class="cls-5" x1="336.25" y1="123.27" x2="86.18" y2="370.09"/><line class="cls-5" x1="339.61" y1="126.64" x2="89.54" y2="373.46"/><line class="cls-5" x1="342.98" y1="130" x2="92.9" y2="376.82"/><line class="cls-5" x1="346.34" y1="133.37" x2="96.27" y2="380.19"/></g></svg>